<?xml version="1.0" encoding="UTF-8"?>
<svg width="100pt" height="100pt" version="1.1" viewBox="0 0 100 100" xmlns="http://www.w3.org/2000/svg">
 <g fill="#999999">
  <path d="m71.68 45.02v4.1719 9.9805 11.836 9.8828c0 1.4258 0.039062 2.8516 0 4.2773 0 0.078125-0.007813 0.66406-0.019532 0.35156-0.007812-0.28125-0.03125 0.15625-0.058594 0.26562-0.039062 0.17578-0.14844 0.91016-0.3125 1.0078 0.058594-0.039063 0.17578-0.35156 0.039063-0.10938-0.039063 0.078125-0.078125 0.15625-0.11719 0.23438-0.070313 0.13672-0.14844 0.26562-0.22266 0.39062-0.078125 0.125-0.16406 0.25391-0.25391 0.37109-0.21484 0.3125 0.070313-0.085938 0.070313-0.085938 0.007812 0.039062-0.1875 0.21484-0.21484 0.24219-0.078125 0.085937-0.58594 0.69531-0.70312 0.66406 0 0 0.39844-0.28125 0.085937-0.070312-0.046875 0.039062-0.10938 0.078124-0.15625 0.10937-0.15625 0.10938-0.32031 0.21484-0.49609 0.30469-0.125 0.070312-0.28125 0.125-0.41016 0.20312-0.21484 0.13672 0.35156-0.125 0.10938-0.046875-0.058593 0.019531-0.125 0.046875-0.1875 0.070312-0.33203 0.11719-0.67188 0.19531-1.0234 0.26563-0.35156 0.070312 0.078125-0.019532 0.11719-0.007813-0.058593-0.007813-0.19531 0.019531-0.27344 0.019531-0.13672 0.007813-0.27344 0.007813-0.41016 0.007813h-0.03125-0.17578-0.82812-8.0078-11.672-10.188-2.9375-0.625-0.21484c-0.15625 0-0.3125-0.019531-0.48047-0.03125-0.27344-0.007813 0.38281 0.070312 0.11719 0.019531-0.070313-0.007812-0.125-0.019531-0.19531-0.039062-0.35156-0.070313-0.68359-0.17578-1.0156-0.28125-0.35938-0.125 0.10938 0.046874 0.10938 0.046874-0.019531 0.007813-0.20312-0.097656-0.23438-0.10937-0.13672-0.070313-0.26562-0.13672-0.39844-0.21484-0.14844-0.085938-0.29297-0.1875-0.42969-0.28125-0.03125-0.019532-0.14844-0.078125-0.15625-0.11719 0.20312 0.16406 0.25391 0.19531 0.14844 0.10938-0.03125-0.03125-0.070313-0.058593-0.097656-0.085937-0.23438-0.22266-0.46094-0.44922-0.68359-0.68359-0.15625-0.16406-0.097656 0.007812 0.058594 0.097656-0.039063-0.019531-0.13672-0.1875-0.14844-0.20312-0.097656-0.13672-0.19531-0.28125-0.27344-0.4375-0.085937-0.14844-0.16406-0.30469-0.24219-0.46094-0.15625-0.30469 0.13672 0.38281-0.03125-0.078125-0.11719-0.33203-0.21484-0.67188-0.27344-1.0156-0.085938-0.44922 0.007812 0.28125-0.007813-0.078125-0.007813-0.1875-0.019531-0.35938-0.019531-0.54688v-0.019532-1.3984-7.9023-11.484-11.258-7.0703c0-0.70312-0.007813-1.4062 0.058594-2.1016 0.007812-0.070313 0.007812-0.13672 0.019531-0.20312 0.03125-0.35156-0.007813 0.070312-0.019531 0.11719 0.039062-0.17578 0.046874-0.35156 0.085937-0.52734 0.058594-0.35156 0.13672-0.69531 0.22266-1.0352 0.078125-0.29297 0.16406-0.58594 0.26562-0.87891 0.058594-0.16406 0.11719-0.33203 0.17578-0.48828 0.03125-0.078125 0.070312-0.16406 0.097656-0.24219 0.10938-0.27344-0.058594 0.058594-0.046875 0.10938-0.046875-0.16406 0.34375-0.72266 0.42188-0.87891 0.15625-0.30469 0.33203-0.60547 0.51562-0.89844 0.16406-0.27344 0.35156-0.53906 0.53906-0.80078 0.03125-0.039062 0.11719-0.19531 0.15625-0.20312 0.007813 0-0.25391 0.3125-0.10938 0.13672 0.125-0.14844 0.24219-0.30469 0.37109-0.44922 0.42969-0.49609 0.89844-0.97656 1.3984-1.4062 0.11719-0.097656 0.22266-0.19531 0.34375-0.29297 0.046874-0.039062 0.15625-0.14844 0.20312-0.15625-0.03125 0.007813-0.38281 0.27344-0.085937 0.070313 0.28125-0.19531 0.55469-0.39844 0.84766-0.57812 0.54688-0.34375 1.125-0.63281 1.7109-0.91797 0.32031-0.15625-0.085938 0.019531-0.10938 0.039063 0.039062-0.039063 0.20312-0.078125 0.24219-0.097656 0.14844-0.058594 0.28125-0.10938 0.42969-0.15625 0.33203-0.11719 0.66406-0.22266 0.99609-0.3125 0.32031-0.085938 0.64453-0.15625 0.96875-0.22266 0.15625-0.03125 0.30469-0.058593 0.46094-0.078125 0.085938-0.007812 0.35938-0.007812 0.070312-0.007812-0.32031 0 0.097657-0.007813 0.13672-0.007813 0.46094-0.046875 0.91797-0.070312 1.375-0.070312h0.74219 9.7461 9.0547c0.39844 0 0.78906 0 1.1914 0.03125 0.17578 0.007812 0.35938 0.03125 0.53906 0.039062 0.070312 0.007813 0.13672 0.019531 0.20312 0.019531 0.27344 0.03125-0.39062-0.058593-0.11719-0.019531 0.35156 0.058594 0.70312 0.11719 1.0469 0.19531 0.66406 0.14844 1.3086 0.35156 1.9414 0.59375 0.058593 0.019531 0.20312 0.058594 0.24219 0.097656 0.007813 0.007812-0.37109-0.16406-0.16406-0.070312 0.13672 0.070312 0.27344 0.125 0.41016 0.1875 0.3125 0.14844 0.61719 0.3125 0.91016 0.48828 0.28125 0.16406 0.54688 0.33203 0.82031 0.51562 0.14844 0.097656 0.28125 0.19531 0.42187 0.29297 0.35938 0.25391-0.22266-0.19531 0.11719 0.085938 0.50781 0.42188 0.99609 0.86719 1.4531 1.3594 0.21484 0.23438 0.42969 0.48047 0.625 0.72266 0.28125 0.34375-0.14844-0.21484 0.046875 0.058594 0.10938 0.15625 0.22266 0.3125 0.33203 0.46875 0.35156 0.51562 0.66406 1.0547 0.9375 1.6094 0.078125 0.15625 0.14844 0.3125 0.22266 0.46875 0.14844 0.3125-0.125-0.34375 0.03125 0.070312 0.11719 0.30469 0.23437 0.61719 0.33203 0.91797 0.19531 0.625 0.35156 1.2812 0.46094 1.9219 0.007813 0.070313 0.019532 0.13672 0.03125 0.19531 0.039063 0.27344-0.039062-0.39062-0.019531-0.11719 0.007813 0.15625 0.03125 0.3125 0.046875 0.46875 0.015625 0.40234 0.023438 0.76172 0.023438 1.125 0.007812 1.0234 0.89844 2 1.9531 1.9531 1.0547-0.046875 1.9648-0.85938 1.9531-1.9531-0.03125-6.0078-3.6328-11.75-9.1484-14.199-2.1172-0.94531-4.3438-1.4258-6.6797-1.4258h-3.2227-11.492c-2.8711 0-5.9062-0.23438-8.7188 0.44922-5.7812 1.4062-10.516 6.3086-11.609 12.168-0.38281 2.0391-0.30469 4.1016-0.30469 6.1641v9.5898 12.051 10.391c0 1.582-0.007812 3.1523 0 4.7344 0.03125 3 1.6797 5.8672 4.3359 7.2969 1.3984 0.75 2.8984 1.0234 4.4609 1.0234h7.2461 11.738 10.75c1.9062 0 3.9062 0.16406 5.7891-0.13672 3.1953-0.50781 5.9453-3.1445 6.6328-6.2969 0.19531-0.89062 0.21484-1.7578 0.21484-2.6562v-7.2461-11.484-11.633-7.6641-1.1016c0-1.0234-0.89844-2-1.9531-1.9531-1.0469 0.027344-1.9453 0.83594-1.9453 1.9297z"/>
  <path d="m58.008 23.625v7.7227c0.65625-0.65625 1.2969-1.2969 1.9531-1.9531h-6.7383-10.703-2.4805c0.65625 0.65625 1.2969 1.2969 1.9531 1.9531v-5.4297c0-0.75-0.007813-1.5039 0-2.2578v-0.039062c0-0.085938 0.007812-0.17578 0.007812-0.27344 0.019531-0.4375-0.085938 0.33203-0.007812 0.058594 0.007812-0.03125 0.11719-0.56641 0.15625-0.56641 0.039062 0-0.19531 0.38281-0.039063 0.11719 0.058594-0.10938 0.11719-0.22266 0.1875-0.33203 0.019531-0.039062 0.046875-0.070312 0.070313-0.10938 0.097656-0.13672 0.097656-0.13672 0-0.007813-0.03125 0.03125-0.046876 0.070313-0.078126 0.097657 0.058594-0.070313 0.10938-0.125 0.16406-0.1875 0.058594-0.058594 0.125-0.11719 0.1875-0.17578 0.27344-0.29297-0.27344 0.13672-0.046875 0.03125 0.16406-0.078126 0.33203-0.20313 0.48828-0.29297 0.33203-0.1875-0.10938 0.070312-0.11719 0.039062 0-0.019531 0.32031-0.10938 0.37109-0.11719 0.039062-0.007813 0.085937-0.019532 0.125-0.03125 0.17578-0.03125 0.17578-0.039063 0-0.007813-0.039063 0.007813-0.085938 0.007813-0.125 0.019531 0.085937-0.007812 0.17578-0.019531 0.26562-0.019531h0.14844 0.14844 0.75 2.8203 6.9062c0.61719 0 1.2305-0.007812 1.8438 0h0.15625c0.046875 0 0.085938 0 0.13672 0.007813 0.17578 0.019531 0.17578 0.019531 0 0-0.17578-0.03125-0.17578-0.019532 0 0.007812 0.070312 0.007813 0.125 0.03125 0.1875 0.046875 0.03125 0.007813 0.3125 0.078125 0.3125 0.097657 0-0.019532-0.42969-0.21484 0 0.019531 0.078125 0.039062 0.14844 0.085937 0.21484 0.125 0.41016 0.25391 0.019532-0.007813 0.007813-0.007813 0.007813-0.007812 0.20312 0.19531 0.23438 0.21484 0.046875 0.046875 0.085938 0.085938 0.125 0.13672 0.10938 0.125 0.10938 0.125 0.007812 0-0.03125-0.03125-0.046874-0.070313-0.078124-0.097657 0.046874 0.070313 0.097656 0.13672 0.14844 0.20313 0.070313 0.10937 0.125 0.22266 0.1875 0.33203 0.15625 0.26562-0.078125-0.10938-0.039063-0.11719 0.03125 0 0.10938 0.32031 0.11719 0.37109 0.007812 0.039063 0.019531 0.085937 0.03125 0.125 0.03125 0.17578 0.039062 0.17578 0.007812 0-0.019531-0.17578-0.019531-0.17578 0 0 0.03125 0.11719 0.03125 0.20703 0.03125 0.29688 0.019532 1.0234 0.89063 2 1.9531 1.9531 1.0469-0.046875 1.9727-0.85938 1.9531-1.9531-0.046874-2.4805-1.6211-4.6094-3.9766-5.3984-0.8125-0.27344-1.6602-0.26562-2.5-0.26562h-6.8438c-1.6211 0-3.2344-0.03125-4.8516 0-2.4023 0.039062-4.4531 1.5039-5.3125 3.7305-0.38281 0.97656-0.35156 1.9922-0.35156 3.0078v6.6406c0 1.0547 0.89844 1.9531 1.9531 1.9531h6.7383 10.703 2.4805c1.0547 0 1.9531-0.89844 1.9531-1.9531v-7.7227c0-1.0234-0.89844-2-1.9531-1.9531-1.0469 0.054688-1.9453 0.86719-1.9453 1.9609z"/>
  <path d="m36.133 10.645h3.7969 8.7891 9.6953 6.6406c0.4375 0 0.89062-0.019531 1.3359 0.007813 0.070313 0 0.13672 0.007812 0.20312 0.019531 0.21484 0.007813-0.1875-0.03125-0.1875-0.03125 0.10938 0.046875 0.27344 0.046875 0.39062 0.078125 0.27344 0.058594 0.53906 0.16406 0.8125 0.24219 0.21484 0.058593-0.1875-0.058594-0.16406-0.078126 0.007813-0.007812 0.19531 0.097657 0.23438 0.10938 0.11719 0.058593 0.22266 0.11719 0.34375 0.1875 0.10937 0.070312 0.22266 0.125 0.32031 0.20312 0.046875 0.039063 0.10938 0.078126 0.15625 0.10938 0.21484 0.11719-0.27344-0.24219-0.085938-0.078126 0.1875 0.17578 0.38281 0.33203 0.56641 0.51563 0.10938 0.10937 0.19531 0.22266 0.29297 0.33203 0.078124 0.085937 0.070312 0.17578 0.007812 0-0.070312-0.21484-0.019531-0.03125 0.039062 0.058593 0.13672 0.21484 0.27344 0.42969 0.39063 0.66406 0.039062 0.078125 0.15625 0.44922 0.085937 0.17578-0.078125-0.28125 0.058594 0.16406 0.078125 0.25391 0.085938 0.27344 0.13672 0.54688 0.20312 0.82813 0.046875 0.21484-0.019531-0.1875-0.019531-0.1875-0.007813 0.058593 0.007812 0.13672 0.019531 0.20312 0.007813 0.15625 0.019531 0.3125 0.019531 0.48047 0.007813 1.0234 0.89062 2 1.9531 1.9531 1.0469-0.046875 1.9648-0.85938 1.9531-1.9531-0.03125-2.8125-1.5234-5.4609-3.9531-6.9062-1.3203-0.78125-2.8125-1.1016-4.3281-1.1016h-5.6328-9.6562-9.3828c-1.6094 0-3.2227-0.039063-4.8359 0h-0.070313c-1.0234 0-2 0.89844-1.9531 1.9531 0.035156 1.0625 0.84766 1.9609 1.9414 1.9609z"/>
  <path d="m48.047 8.6914v9.8438 1.3867c0 1.0234 0.89844 2 1.9531 1.9531s1.9531-0.85938 1.9531-1.9531v-9.8438-1.3867c0-1.0234-0.89844-2-1.9531-1.9531-1.0547 0.050781-1.9531 0.85938-1.9531 1.9531z"/>
  <path d="m52.422 52.129v8.9531 12.051c0 0.32031-0.007813 0.63281 0 0.95703v0.019531c0 0.046875-0.17578-0.046875 0 0.13672 0.007813-0.039063 0.007813-0.085938 0.019531-0.125 0.03125-0.17578 0.019532-0.17578-0.007812 0-0.007813 0.039062-0.03125 0.078125-0.039063 0.125 0.03125-0.078125 0.070313-0.15625 0.097657-0.23438-0.019532 0.039062-0.039063 0.078125-0.058594 0.11719-0.085938 0.13672-0.085938 0.14844 0.007812 0.007813 0.03125-0.03125 0.046875-0.070313 0.078125-0.097657-0.039062 0.046876-0.078125 0.097657-0.125 0.13672-0.29297 0.32031 0.125-0.097656 0 0.007813-0.32031 0.26562 0.046875-0.097656 0.058594-0.007813 0 0.007813-0.25391 0.070313-0.25391 0.070313-0.007813-0.078125 0.44922-0.019532 0.11719-0.03125h-0.070312c-1.0078 0.007812-2.0234 0-3.0273 0h-13.117c-3.1953 0-6.3984-0.085938-9.5898 0h-0.15625l1.9531 1.9531v-8.8594-13.996-3.2109c-0.65625 0.65625-1.2969 1.2969-1.9531 1.9531h9.4531 14.211 1.9531 0.33203c0.019531 0 0.125 0.019531 0.14844 0-0.085937-0.007813-0.17578-0.019532-0.25391-0.039063 0.085937 0.019531 0.16406 0.039063 0.25391 0.070313-0.24219-0.11719-0.30469-0.13672-0.17578-0.070313 0.058594 0.03125 0.10938 0.058594 0.16406 0.097656-0.007812 0.007813-0.33203-0.3125-0.046875-0.03125 0.35156 0.35156-0.20312-0.24219 0.039063 0.058594 0.24219 0.30469-0.10938-0.10938-0.039063-0.11719 0.03125 0.078124 0.046875 0.16406 0.070313 0.25391-0.042969-0.32422-0.050782-0.36328-0.042969-0.14844 0.03125 1.0156 0.87891 2 1.9531 1.9531 1.0234-0.046875 1.9922-0.85938 1.9531-1.9531-0.078125-2.2578-1.8164-3.9531-4.0625-4.0039-0.39844-0.007812-0.80078 0-1.1914 0h-5.8281-15.234-3.6406c-1.0547 0-1.9531 0.89844-1.9531 1.9531v8.8594 13.996 3.2109c0 1.0547 0.89844 1.9531 1.9531 1.9531h8.25 13.711 3.7305c1.0625 0 2.0234-0.29297 2.8594-0.96875 0.98438-0.78906 1.4141-2.0234 1.4141-3.25v-10.859c0-3.5625 0.039062-7.1367 0-10.703v-0.1875c0-1.0234-0.89844-2-1.9531-1.9531-1.0625 0.046875-1.9609 0.85938-1.9609 1.9531z"/>
 </g>
</svg>
