<?xml version="1.0" encoding="UTF-8"?>
<svg width="100pt" height="100pt" version="1.1" viewBox="0 0 100 100" xmlns="http://www.w3.org/2000/svg">
 <g fill="#999999">
  <path d="m84.375 34.469v-0.64062c-0.007812-2.2461-1.6055-4.1719-3.8125-4.5938l-15.656-2.9844c-9.8477-1.8906-19.965-1.8906-29.812 0l-15.656 2.9844c-2.207 0.42188-3.8047 2.3477-3.8125 4.5938v0.64062c-7.1094 0.80469-12.484 6.8125-12.5 13.969v3.125c0.015625 7.1562 5.3906 13.164 12.5 13.969v0.64062c0.007812 2.2461 1.6055 4.1719 3.8125 4.5938l15.656 2.9844c4.9141 0.93359 9.9062 1.4062 14.906 1.4062s9.9922-0.47266 14.906-1.4062l15.656-2.9844c2.207-0.42188 3.8047-2.3477 3.8125-4.5938v-0.64062c7.1094-0.80469 12.484-6.8125 12.5-13.969v-3.125c-0.015625-7.1562-5.3906-13.164-12.5-13.969zm-68.75 27.922c-5.3789-0.78516-9.3672-5.3945-9.375-10.828v-3.125c0.007812-5.4336 3.9961-10.043 9.375-10.828zm65.625 3.7812c0 0.74609-0.53125 1.3906-1.2656 1.5312l-15.656 2.9844c-9.4688 1.7969-19.188 1.7969-28.656 0l-15.656-2.9844c-0.73438-0.14062-1.2656-0.78516-1.2656-1.5312v-32.344c0-0.74609 0.53125-1.3906 1.2656-1.5312l15.656-2.9844c9.4688-1.793 19.188-1.793 28.656 0l15.656 2.9844c0.73438 0.14062 1.2656 0.78516 1.2656 1.5312zm12.5-14.609c-0.007812 5.4336-3.9961 10.043-9.375 10.828v-24.781c5.3789 0.78516 9.3672 5.3945 9.375 10.828z"/>
  <path d="m73.438 48.438h-46.875c-0.86328 0-1.5625 0.69922-1.5625 1.5625s0.69922 1.5625 1.5625 1.5625h46.875c0.86328 0 1.5625-0.69922 1.5625-1.5625s-0.69922-1.5625-1.5625-1.5625z"/>
  <path d="m73.438 39.062h-46.875c-0.86328 0-1.5625 0.69922-1.5625 1.5625s0.69922 1.5625 1.5625 1.5625h46.875c0.86328 0 1.5625-0.69922 1.5625-1.5625s-0.69922-1.5625-1.5625-1.5625z"/>
  <path d="m73.438 57.812h-46.875c-0.86328 0-1.5625 0.69922-1.5625 1.5625s0.69922 1.5625 1.5625 1.5625h46.875c0.86328 0 1.5625-0.69922 1.5625-1.5625s-0.69922-1.5625-1.5625-1.5625z"/>
 </g>
</svg>
