<?xml version="1.0" encoding="UTF-8"?>
<svg width="100pt" height="100pt" version="1.1" viewBox="0 0 100 100" xmlns="http://www.w3.org/2000/svg">
 <g fill="#999999">
  <path d="m26.344 90.738c2.332 0 4.2305-1.8984 4.2305-4.2305v-18.512c1.9258-0.47656 3.3633-2.207 3.3633-4.2812v-24.691c0-3.168-2.5781-5.7461-5.7461-5.7461h-14.113c-3.168 0-5.7461 2.5781-5.7461 5.7461v24.691c0 2.0703 1.4375 3.8008 3.3633 4.2812v18.512c0 2.332 1.8984 4.2305 4.2305 4.2305zm-14.676-51.715c0-1.3281 1.082-2.4102 2.4102-2.4102h14.113c1.3281 0 2.4102 1.082 2.4102 2.4102v24.691c0 0.60156-0.48828 1.0898-1.0898 1.0898h-16.754c-0.60156 0-1.0898-0.48828-1.0898-1.0898zm3.3594 47.484v-18.367h12.211v18.367c0 0.49609-0.40234 0.89844-0.89844 0.89844h-10.418c-0.49219 0-0.89453-0.40234-0.89453-0.89844z"/>
  <path d="m10.68 19.715c0 5.7656 4.6875 10.453 10.453 10.453 5.7656 0 10.453-4.6914 10.453-10.453 0-5.7656-4.6875-10.453-10.453-10.453-5.7617 0-10.453 4.6875-10.453 10.453zm17.574 0c0 3.9258-3.1953 7.1211-7.1211 7.1211-3.9258 0-7.1211-3.1953-7.1211-7.1211 0-3.9258 3.1953-7.1211 7.1211-7.1211 3.9258 0 7.1211 3.1953 7.1211 7.1211z"/>
  <path d="m85.922 33.277h-14.109c-3.168 0-5.7461 2.5781-5.7461 5.7461v24.691c0 2.0703 1.4375 3.8008 3.3633 4.2812v18.512c0 2.332 1.8945 4.2305 4.2305 4.2305h10.418c2.332 0 4.2305-1.8984 4.2305-4.2305l-0.003906-18.512c1.9258-0.47656 3.3633-2.207 3.3633-4.2812v-24.691c0-3.168-2.5781-5.7461-5.7461-5.7461zm-0.94922 53.23c0 0.49609-0.40234 0.89844-0.89844 0.89844h-10.418c-0.49219 0-0.89453-0.40234-0.89453-0.89844v-18.367h12.211zm3.3594-22.793c0 0.60156-0.48828 1.0898-1.0898 1.0898h-16.754c-0.60156 0-1.0898-0.48828-1.0898-1.0898v-24.691c0-1.3281 1.082-2.4102 2.4102-2.4102h14.109c1.332 0 2.4141 1.082 2.4141 2.4102z"/>
  <path d="m68.414 19.715c0 5.7656 4.6875 10.453 10.453 10.453 5.7617 0 10.453-4.6914 10.453-10.453 0-5.7656-4.6875-10.453-10.453-10.453-5.7656 0-10.453 4.6875-10.453 10.453zm17.574 0c0 3.9258-3.1914 7.1211-7.1211 7.1211-3.9258 0-7.1211-3.1953-7.1211-7.1211 0-3.9258 3.1953-7.1211 7.1211-7.1211 3.9258 0 7.1211 3.1953 7.1211 7.1211z"/>
  <path d="m54.555 35.168c0.32422 0.32422 0.75391 0.48828 1.1797 0.48828s0.85156-0.16406 1.1797-0.48828l4.5547-4.5547c0.15234-0.15234 0.27734-0.33594 0.35938-0.53906 0.085937-0.20312 0.12891-0.41797 0.12891-0.64062s-0.046875-0.44141-0.12891-0.64062c-0.085937-0.20312-0.20703-0.38672-0.35938-0.53906l-4.5586-4.5547c-0.65234-0.65234-1.707-0.65234-2.3555 0-0.65234 0.65234-0.65234 1.707 0 2.3555l1.7109 1.7109h-12.531l1.7109-1.7109c0.65234-0.65234 0.65234-1.707 0-2.3555-0.65234-0.65234-1.707-0.65234-2.3555 0l-4.5547 4.5547c-0.15234 0.15234-0.27734 0.33984-0.35938 0.54297-0.16797 0.40625-0.16797 0.86719 0 1.2734 0.085938 0.20313 0.20703 0.39063 0.35938 0.54297l4.5547 4.5547c0.32422 0.32422 0.75391 0.48828 1.1797 0.48828s0.85156-0.16406 1.1797-0.48828c0.65234-0.64844 0.65234-1.707 0-2.3555l-1.7109-1.7109h12.531l-1.7109 1.7109c-0.65625 0.64844-0.65625 1.7031-0.003906 2.3555z"/>
 </g>
</svg>
